<svg width="148" height="162" viewBox="0 0 148 162" fill="none" xmlns="http://www.w3.org/2000/svg">
<g clip-path="url(#clip0_1_5)">
<rect width="287" height="272" transform="translate(-139 -110)" fill="white"/>
<path d="M28.5614 80.2383L42.9065 20H114.69L131.427 80.2432L79.5029 119.372L28.5614 80.2383Z" fill="#3FB60A" stroke="#3FB60A"/>
<path d="M28.5 9L74.5 0.5L123 9L114.82 18H42.6557L28.5 9Z" fill="#3FB60A"/>
<path d="M134 80L117.5 18.9999L124.5 11L143.5 47L146 91.5L134 80Z" fill="#3FB60A"/>
<path d="M-0.29311 43L25.7069 10L40.5 19L25.7069 79.8052L-0.293116 90.8051L-0.29311 43Z" fill="#3FB60A"/>
<path d="M22 140.5L0.184779 93.2635L26.0036 82.4953L78 122.5L72 160L22 140.5Z" fill="#3FB60A"/>
<path d="M80.5 123L133.507 82.4953L145.5 94L129.5 139.5L74.5 160.5L80.5 123Z" fill="#3FB60A"/>
</g>
<defs>
<clipPath id="clip0_1_5">
<rect width="287" height="272" fill="white" transform="translate(-139 -110)"/>
</clipPath>
</defs>
</svg>
