<svg width="603" height="160" viewBox="0 0 603 160" fill="none" xmlns="http://www.w3.org/2000/svg">
<rect width="910" height="369" transform="translate(-139 -110)" fill="white"/>
<path d="M28.5614 80.2383L42.9065 20H114.69L131.427 80.2432L79.5029 119.372L28.5614 80.2383Z" fill="#3FB60A" stroke="#3FB60A"/>
<path d="M28.5 9L74.5 0.5L123 9L114.82 18H42.6557L28.5 9Z" fill="#3FB60A"/>
<path d="M134 80L117.5 18.9999L124.5 11L143.5 47L146 91.5L134 80Z" fill="#3FB60A"/>
<path d="M-0.29311 43L25.7069 9.99999L40.5 19L25.7069 79.8052L-0.293116 90.8051L-0.29311 43Z" fill="#3FB60A"/>
<path d="M22 140.5L0.184772 93.2635L26.0036 82.4953L78 122.5L72 160L22 140.5Z" fill="#3FB60A"/>
<path d="M80.5 123L133.507 82.4953L145.5 94L129.5 139.5L74.5 160.5L80.5 123Z" fill="#3FB60A"/>
<path d="M185 0H603V126H185V0Z" fill="#3FB60A"/>
<path d="M253.82 20.3906C258.82 20.3125 262.922 21.2109 266.125 23.0859C269.406 24.9609 272.062 27.1875 274.094 29.7656C276.125 32.3438 277.688 34.9609 278.781 37.6172C279.875 40.1953 280.734 42.2266 281.359 43.7109C281.516 44.1016 281.828 44.6094 282.297 45.2344C282.688 45.7812 283.234 46.4453 283.938 47.2266C284.719 47.9297 285.695 48.75 286.867 49.6875C284.445 49.7656 282.297 49.8438 280.422 49.9219C278.547 49.9219 276.945 49.9609 275.617 50.0391C274.133 50.1172 272.805 50.1953 271.633 50.2734C270.461 50.3516 269.016 50.4688 267.297 50.625C265.734 50.7812 263.82 50.9375 261.555 51.0938C259.289 51.25 256.516 51.4844 253.234 51.7969C255.188 49.4531 256.711 47.3828 257.805 45.5859C258.977 43.7109 259.836 42.0703 260.383 40.6641C261.008 39.1797 261.359 37.8906 261.438 36.7969C261.594 35.7031 261.555 34.7656 261.32 33.9844C260.852 32.1875 259.641 30.8984 257.688 30.1172C252.062 28.5547 247.141 29.8047 242.922 33.8672C238.781 37.8516 235.812 44.4141 234.016 53.5547C233.156 58.0859 232.336 62.8125 231.555 67.7344C230.852 72.5781 230.578 77.0312 230.734 81.0938C230.891 85.0781 231.672 88.3203 233.078 90.8203C234.484 93.3203 236.906 94.4922 240.344 94.3359C243.703 94.1797 246.555 93.6328 248.898 92.6953C251.242 91.6797 253.117 90.5078 254.523 89.1797C255.93 87.7734 256.906 86.2891 257.453 84.7266C258.078 83.0859 258.312 81.5625 258.156 80.1562C257.844 79.0625 257.023 77.8906 255.695 76.6406C254.523 75.5469 252.766 74.3359 250.422 73.0078C248.078 71.6016 244.719 70.1562 240.344 68.6719C244.484 68.4375 247.883 68.2812 250.539 68.2031C253.273 68.0469 255.422 67.8906 256.984 67.7344C258.859 67.5781 260.305 67.4609 261.32 67.3828C262.258 67.3047 263.625 67.2266 265.422 67.1484C266.984 67.0703 268.977 67.0312 271.398 67.0312C273.898 67.0312 277.023 66.9922 280.773 66.9141C279.367 68.3203 278.273 69.6094 277.492 70.7812C277.102 71.4062 276.75 71.9531 276.438 72.4219C276.125 73.2031 276.008 74.8047 276.086 77.2266C276.086 79.2578 276.242 82.2656 276.555 86.25C276.867 90.1562 277.453 95.5078 278.312 102.305L262.727 104.414L263.43 88.5938C261.633 92.8906 259.367 96.0938 256.633 98.2031C253.977 100.312 251.438 101.797 249.016 102.656C246.125 103.672 243.117 104.141 239.992 104.062C235.93 103.672 231.867 102.734 227.805 101.25C223.742 99.7656 220.148 97.5 217.023 94.4531C213.898 91.3281 211.477 87.3047 209.758 82.3828C208.117 77.4609 207.609 71.3672 208.234 64.1016C208.938 56.8359 210.656 50.5078 213.391 45.1172C216.203 39.6484 219.68 35.1172 223.82 31.5234C227.961 27.9297 232.609 25.2344 237.766 23.4375C243 21.5625 248.352 20.5469 253.82 20.3906ZM280.891 19.4531C283.391 19.8438 285.656 20.1953 287.688 20.5078C289.719 20.7422 291.477 20.9375 292.961 21.0938C294.68 21.3281 296.203 21.5234 297.531 21.6797C299.172 21.9141 301.633 21.6406 304.914 20.8594C308.195 20 311.789 19.2188 315.695 18.5156C319.68 17.7344 323.742 17.3047 327.883 17.2266C332.023 17.0703 335.812 17.8125 339.25 19.4531C342.688 21.0938 345.5 22.7344 347.688 24.375C349.875 26.0156 351.594 27.7734 352.844 29.6484C354.172 31.4453 355.109 33.3594 355.656 35.3906C356.203 37.4219 356.516 39.6484 356.594 42.0703C356.516 45.6641 355.656 49.1406 354.016 52.5C353.312 53.9062 352.375 55.3906 351.203 56.9531C350.109 58.4375 348.742 59.8828 347.102 61.2891C345.461 62.6953 343.508 64.0234 341.242 65.2734C339.055 66.5234 336.477 67.6172 333.508 68.5547C336.398 69.4141 338.781 70.4297 340.656 71.6016C342.609 72.7734 344.172 73.8672 345.344 74.8828C346.75 76.1328 347.805 77.3438 348.508 78.5156C349.367 80.1562 349.953 81.5625 350.266 82.7344C350.578 83.9062 350.773 85.0391 350.852 86.1328C351.008 87.1484 351.203 88.2031 351.438 89.2969C351.672 90.3906 352.18 91.6406 352.961 93.0469C353.586 94.1406 354.328 95.2734 355.188 96.4453C355.969 97.4609 356.867 98.5547 357.883 99.7266C358.977 100.898 360.305 102.031 361.867 103.125C359.68 103.203 357.648 103.242 355.773 103.242C353.977 103.242 352.414 103.242 351.086 103.242C349.523 103.242 348.039 103.203 346.633 103.125C345.227 103.047 343.469 103.008 341.359 103.008C339.562 103.008 337.258 103.008 334.445 103.008C331.711 103.008 328.391 103.047 324.484 103.125C326.203 101.797 327.609 100.469 328.703 99.1406C329.797 97.8125 330.656 96.6016 331.281 95.5078C331.984 94.2578 332.492 93.0469 332.805 91.875C333.195 89.7656 333.234 87.5781 332.922 85.3125C332.688 83.3594 332.062 81.2109 331.047 78.8672C330.031 76.4453 328.391 74.0234 326.125 71.6016C323.859 71.9922 321.945 72.3047 320.383 72.5391C318.898 72.6953 317.609 72.8516 316.516 73.0078C315.266 73.1641 314.25 73.2812 313.469 73.3594C312.766 73.4375 311.984 73.5156 311.125 73.5938C310.422 73.6719 309.641 73.7891 308.781 73.9453C308 74.0234 307.258 74.1406 306.555 74.2969C306.398 77.6562 306.398 80.5859 306.555 83.0859C306.711 85.5078 306.906 87.5391 307.141 89.1797C307.453 91.1328 307.805 92.8125 308.195 94.2188C308.586 95.625 309.133 96.9922 309.836 98.3203C310.383 99.4141 311.086 100.586 311.945 101.836C312.805 103.008 313.781 103.984 314.875 104.766C312.844 104.766 310.891 104.766 309.016 104.766C307.219 104.766 305.578 104.727 304.094 104.648C302.375 104.648 300.734 104.609 299.172 104.531C297.609 104.453 295.852 104.414 293.898 104.414C292.258 104.414 290.305 104.414 288.039 104.414C285.852 104.414 283.469 104.453 280.891 104.531C282.922 102.422 284.523 100.625 285.695 99.1406C286.867 97.6562 287.766 96.4062 288.391 95.3906C289.094 94.2969 289.523 93.3594 289.68 92.5781C289.836 91.3281 289.953 89.1016 290.031 85.8984C290.188 82.6172 290.305 78.8672 290.383 74.6484C290.461 70.4297 290.5 66.0156 290.5 61.4062C290.5 56.7969 290.461 52.5 290.383 48.5156C290.305 44.4531 290.227 40.9766 290.148 38.0859C290.07 35.1953 289.992 33.3594 289.914 32.5781C289.68 31.1719 289.172 29.7656 288.391 28.3594C287.766 27.1094 286.867 25.7031 285.695 24.1406C284.523 22.5781 282.922 21.0156 280.891 19.4531ZM325.188 60.7031C325.969 60.2344 326.633 59.7656 327.18 59.2969C327.727 58.8281 328.195 58.0859 328.586 57.0703C328.977 55.9766 329.289 54.4531 329.523 52.5C329.836 50.5469 330.188 47.8906 330.578 44.5312C330.891 41.1719 330.656 38.3984 329.875 36.2109C329.172 34.0234 328.195 32.3047 326.945 31.0547C325.773 29.7266 324.445 28.8281 322.961 28.3594C321.555 27.8125 320.305 27.5391 319.211 27.5391C317.023 27.5391 314.875 28.2031 312.766 29.5312C310.656 30.8594 309.055 32.6562 307.961 34.9219C307.57 35.9375 307.219 37.6172 306.906 39.9609C306.672 41.9922 306.516 44.8047 306.438 48.3984C306.359 51.9922 306.477 56.7188 306.789 62.5781C309.758 63.0469 312.375 63.2422 314.641 63.1641C316.906 63.0078 318.82 62.7344 320.383 62.3438C322.258 61.9531 323.859 61.4062 325.188 60.7031ZM354.719 24.9609C360.188 25.1172 364.719 25.2344 368.312 25.3125C371.984 25.3125 374.953 25.3125 377.219 25.3125H383.43H418.352C418.508 26.875 418.625 28.3984 418.703 29.8828C418.859 31.2891 418.938 32.5391 418.938 33.6328C418.938 34.9609 418.898 36.1719 418.82 37.2656C418.742 38.3594 418.625 39.5313 418.469 40.7812C418.312 41.875 418.156 43.0469 418 44.2969C417.844 45.5469 417.57 46.8359 417.18 48.1641C416.086 43.9453 414.602 40.7422 412.727 38.5547C410.93 36.3672 409.094 34.7656 407.219 33.75C405.031 32.5781 402.727 31.9531 400.305 31.875C397.102 32.0313 394.602 32.3047 392.805 32.6953C391.008 33.0859 389.602 33.6328 388.586 34.3359C387.57 35.0391 386.789 35.8594 386.242 36.7969C385.773 37.6563 385.266 38.6328 384.719 39.7266C384.25 40.6641 383.82 42.1094 383.43 44.0625C383.039 45.7031 382.648 47.9297 382.258 50.7422C381.945 53.5547 381.594 57.1875 381.203 61.6406C383.312 61.0156 384.992 60.4297 386.242 59.8828C387.57 59.3359 388.625 58.8672 389.406 58.4766C390.266 58.0078 390.891 57.5781 391.281 57.1875C391.594 56.7188 392.062 55.8594 392.688 54.6094C393.156 53.5156 393.781 52.0312 394.562 50.1562C395.422 48.2812 396.438 45.7031 397.609 42.4219C397.766 46.0156 397.844 49.0234 397.844 51.4453C397.844 53.7891 397.883 55.7031 397.961 57.1875C397.961 58.9062 398 60.2734 398.078 61.2891V65.7422C398.078 67.3828 398.078 69.6094 398.078 72.4219C398.156 75.1562 398.273 78.6328 398.43 82.8516C397.492 79.9609 396.633 77.6953 395.852 76.0547C395.148 74.3359 394.523 73.0469 393.977 72.1875C393.352 71.1719 392.805 70.4688 392.336 70.0781C391.789 69.9219 391.047 69.7656 390.109 69.6094C389.25 69.5312 388.156 69.4922 386.828 69.4922C385.578 69.4922 383.977 69.6875 382.023 70.0781C381.789 74.375 381.75 77.8516 381.906 80.5078C382.141 83.0859 382.453 85.0781 382.844 86.4844C383.234 88.125 383.703 89.2969 384.25 90C384.953 90.7031 386.359 91.2891 388.469 91.7578C390.578 92.1484 392.961 92.3047 395.617 92.2266C398.352 92.0703 401.125 91.6016 403.938 90.8203C406.75 90.0391 409.25 88.75 411.438 86.9531C413.078 85.4688 414.836 83.5938 416.711 81.3281C418.273 79.375 419.992 76.9141 421.867 73.9453C423.82 70.9766 425.734 67.3828 427.609 63.1641C427.297 66.6797 427.062 69.6094 426.906 71.9531C426.828 74.2188 426.711 76.0547 426.555 77.4609C426.398 79.1016 426.281 80.3516 426.203 81.2109C426.203 82.1484 426.086 83.4766 425.852 85.1953C425.695 86.6797 425.422 88.7109 425.031 91.2891C424.719 93.7891 424.289 96.9922 423.742 100.898C420.07 100.977 416.594 101.055 413.312 101.133C410.031 101.133 407.141 101.172 404.641 101.25C401.672 101.328 398.938 101.406 396.438 101.484C393.859 101.484 391.008 101.602 387.883 101.836C385.148 101.992 381.906 102.227 378.156 102.539C374.484 102.852 370.422 103.281 365.969 103.828C366.359 98.5156 366.633 93.5156 366.789 88.8281C367.023 84.0625 367.18 79.8828 367.258 76.2891C367.336 72.0703 367.336 68.1641 367.258 64.5703C367.648 55.5859 367.492 48.3203 366.789 42.7734C366.086 37.2266 365.266 33.6719 364.328 32.1094C363.859 31.5625 363.195 30.8984 362.336 30.1172C361.633 29.4922 360.656 28.75 359.406 27.8906C358.156 27.0312 356.594 26.0547 354.719 24.9609ZM425.266 24.9609C430.734 25.1172 435.266 25.2344 438.859 25.3125C442.531 25.3125 445.5 25.3125 447.766 25.3125H453.977H488.898C489.055 26.875 489.172 28.3984 489.25 29.8828C489.406 31.2891 489.484 32.5391 489.484 33.6328C489.484 34.9609 489.445 36.1719 489.367 37.2656C489.289 38.3594 489.172 39.5313 489.016 40.7812C488.859 41.875 488.703 43.0469 488.547 44.2969C488.391 45.5469 488.117 46.8359 487.727 48.1641C486.633 43.9453 485.148 40.7422 483.273 38.5547C481.477 36.3672 479.641 34.7656 477.766 33.75C475.578 32.5781 473.273 31.9531 470.852 31.875C467.648 32.0313 465.148 32.3047 463.352 32.6953C461.555 33.0859 460.148 33.6328 459.133 34.3359C458.117 35.0391 457.336 35.8594 456.789 36.7969C456.32 37.6563 455.812 38.6328 455.266 39.7266C454.797 40.6641 454.367 42.1094 453.977 44.0625C453.586 45.7031 453.195 47.9297 452.805 50.7422C452.492 53.5547 452.141 57.1875 451.75 61.6406C453.859 61.0156 455.539 60.4297 456.789 59.8828C458.117 59.3359 459.172 58.8672 459.953 58.4766C460.812 58.0078 461.438 57.5781 461.828 57.1875C462.141 56.7188 462.609 55.8594 463.234 54.6094C463.703 53.5156 464.328 52.0312 465.109 50.1562C465.969 48.2812 466.984 45.7031 468.156 42.4219C468.312 46.0156 468.391 49.0234 468.391 51.4453C468.391 53.7891 468.43 55.7031 468.508 57.1875C468.508 58.9062 468.547 60.2734 468.625 61.2891V65.7422C468.625 67.3828 468.625 69.6094 468.625 72.4219C468.703 75.1562 468.82 78.6328 468.977 82.8516C468.039 79.9609 467.18 77.6953 466.398 76.0547C465.695 74.3359 465.07 73.0469 464.523 72.1875C463.898 71.1719 463.352 70.4688 462.883 70.0781C462.336 69.9219 461.594 69.7656 460.656 69.6094C459.797 69.5312 458.703 69.4922 457.375 69.4922C456.125 69.4922 454.523 69.6875 452.57 70.0781C452.336 74.375 452.297 77.8516 452.453 80.5078C452.688 83.0859 453 85.0781 453.391 86.4844C453.781 88.125 454.25 89.2969 454.797 90C455.5 90.7031 456.906 91.2891 459.016 91.7578C461.125 92.1484 463.508 92.3047 466.164 92.2266C468.898 92.0703 471.672 91.6016 474.484 90.8203C477.297 90.0391 479.797 88.75 481.984 86.9531C483.625 85.4688 485.383 83.5938 487.258 81.3281C488.82 79.375 490.539 76.9141 492.414 73.9453C494.367 70.9766 496.281 67.3828 498.156 63.1641C497.844 66.6797 497.609 69.6094 497.453 71.9531C497.375 74.2188 497.258 76.0547 497.102 77.4609C496.945 79.1016 496.828 80.3516 496.75 81.2109C496.75 82.1484 496.633 83.4766 496.398 85.1953C496.242 86.6797 495.969 88.7109 495.578 91.2891C495.266 93.7891 494.836 96.9922 494.289 100.898C490.617 100.977 487.141 101.055 483.859 101.133C480.578 101.133 477.688 101.172 475.188 101.25C472.219 101.328 469.484 101.406 466.984 101.484C464.406 101.484 461.555 101.602 458.43 101.836C455.695 101.992 452.453 102.227 448.703 102.539C445.031 102.852 440.969 103.281 436.516 103.828C436.906 98.5156 437.18 93.5156 437.336 88.8281C437.57 84.0625 437.727 79.8828 437.805 76.2891C437.883 72.0703 437.883 68.1641 437.805 64.5703C438.195 55.5859 438.039 48.3203 437.336 42.7734C436.633 37.2266 435.812 33.6719 434.875 32.1094C434.406 31.5625 433.742 30.8984 432.883 30.1172C432.18 29.4922 431.203 28.75 429.953 27.8906C428.703 27.0312 427.141 26.0547 425.266 24.9609ZM496.398 21.9141C499.914 22.5391 502.805 22.9688 505.07 23.2031C507.336 23.4375 509.172 23.6328 510.578 23.7891C512.219 23.9453 513.508 23.9844 514.445 23.9062H517.961C519.211 23.9062 520.773 23.9062 522.648 23.9062C524.602 23.8281 527.023 23.7891 529.914 23.7891C531.555 27.6172 533.039 31.1328 534.367 34.3359C535.773 37.5391 536.945 40.2734 537.883 42.5391C538.977 45.2734 539.992 47.7344 540.93 49.9219C542.023 52.6562 543.195 55.6641 544.445 58.9453C545.695 62.2266 546.828 65.3125 547.844 68.2031C548.938 71.0938 549.836 73.4766 550.539 75.3516C551.242 77.2266 551.594 78.0859 551.594 77.9297C551.594 77.8516 551.633 77.0703 551.711 75.5859C551.789 74.0234 551.867 72.1094 551.945 69.8438C552.023 67.5 552.102 64.9609 552.18 62.2266C552.336 59.4141 552.414 56.7188 552.414 54.1406C552.492 51.4844 552.531 49.0625 552.531 46.875C552.531 44.6875 552.453 43.0469 552.297 41.9531C552.062 40.625 551.594 39.1016 550.891 37.3828C550.266 35.8984 549.406 34.1406 548.312 32.1094C547.219 30 545.695 27.6172 543.742 24.9609C546.945 25.0391 549.562 25.0781 551.594 25.0781C553.625 25.0781 555.266 25.0781 556.516 25.0781C557.922 25.0781 559.016 25.0391 559.797 24.9609C560.812 24.9609 562.062 24.8828 563.547 24.7266C564.875 24.5703 566.516 24.4531 568.469 24.375C570.5 24.2187 573 24.0234 575.969 23.7891C574.25 25.3516 572.883 26.8359 571.867 28.2422C570.852 29.6484 570.031 30.8984 569.406 31.9922C568.703 33.2422 568.234 34.4141 568 35.5078C567.688 36.9141 567.414 39.2187 567.18 42.4219C567.023 45.5469 566.828 49.0625 566.594 52.9688C566.438 56.875 566.281 60.9375 566.125 65.1562C565.969 69.375 565.812 73.2422 565.656 76.7578C565.656 79.4141 565.578 82.2656 565.422 85.3125C565.266 87.8906 565.109 90.8203 564.953 94.1016C564.797 97.3047 564.602 100.547 564.367 103.828L553.938 104.062C550.891 98.6719 548.312 94.0625 546.203 90.2344C544.172 86.3281 542.492 83.125 541.164 80.625C539.68 77.7344 538.43 75.3125 537.414 73.3594C536.555 71.4844 535.422 69.3359 534.016 66.9141C532.844 64.8828 531.359 62.3828 529.562 59.4141C527.844 56.4453 525.773 53.0469 523.352 49.2188C523.117 54.6094 523 59.2188 523 63.0469C523.078 66.7969 523.195 69.9219 523.352 72.4219C523.586 75.3125 523.859 77.7344 524.172 79.6875C524.562 81.5625 525.109 83.6719 525.812 86.0156C526.438 88.0469 527.18 90.4297 528.039 93.1641C528.977 95.8984 530.109 98.9844 531.438 102.422C526.828 102.188 523.391 102.07 521.125 102.07H517.609C516.516 102.07 515.031 102.188 513.156 102.422C511.594 102.578 509.445 102.812 506.711 103.125C504.055 103.438 500.734 103.867 496.75 104.414C498.625 102.148 500.109 100.078 501.203 98.2031C502.375 96.25 503.273 94.6094 503.898 93.2812C504.68 91.7188 505.227 90.3516 505.539 89.1797C505.773 87.9297 505.93 85.7812 506.008 82.7344C506.086 79.6094 506.086 76.0938 506.008 72.1875C506.008 68.2031 505.93 64.0234 505.773 59.6484C505.695 55.2734 505.578 51.2109 505.422 47.4609C505.266 43.7109 505.07 40.5078 504.836 37.8516C504.68 35.1953 504.562 33.5547 504.484 32.9297C504.25 31.9141 503.781 30.8203 503.078 29.6484C502.453 28.6328 501.633 27.5 500.617 26.25C499.602 24.9219 498.195 23.4766 496.398 21.9141Z" fill="white"/>
<path d="M315.395 150.288C315.491 149.936 315.595 149.456 315.707 148.848C315.867 148.128 315.995 147.584 316.091 147.216C316.187 146.848 316.315 146.536 316.475 146.28C316.651 145.992 316.803 145.8 316.931 145.704C317.075 145.608 317.227 145.56 317.387 145.56C318.219 145.56 318.635 145.88 318.635 146.52C318.635 146.84 318.507 147.44 318.251 148.32C317.403 150.88 316.795 152.864 316.427 154.272C316.267 154.864 316.027 155.32 315.707 155.64C315.387 155.944 314.955 156.096 314.411 156.096C314.139 156.096 313.859 155.968 313.571 155.712C313.299 155.44 313.075 155.112 312.899 154.728L312.635 154.08C312.187 152.944 311.851 152.072 311.627 151.464C311.419 150.84 311.283 150.28 311.219 149.784L311.003 150.552C310.619 151.928 310.219 153.208 309.803 154.392C309.595 155 309.339 155.44 309.035 155.712C308.731 155.968 308.339 156.096 307.859 156.096C307.571 156.096 307.315 156.032 307.091 155.904C306.883 155.776 306.683 155.56 306.491 155.256C306.235 154.84 305.987 154.28 305.747 153.576C305.523 152.872 305.195 151.776 304.763 150.288C304.555 149.648 304.363 148.976 304.187 148.272C304.011 147.552 303.923 147.048 303.923 146.76C303.923 146.424 304.011 146.16 304.187 145.968C304.363 145.776 304.619 145.68 304.955 145.68C305.387 145.68 305.691 145.768 305.867 145.944C306.043 146.104 306.203 146.352 306.347 146.688C306.427 147.264 306.603 148.08 306.875 149.136L307.403 151.392C307.435 151.568 307.531 151.936 307.691 152.496L307.883 153.192C308.235 152.44 308.531 151.72 308.771 151.032C309.011 150.344 309.275 149.496 309.563 148.488C309.579 148.424 309.739 147.872 310.043 146.832C310.251 146.496 310.435 146.248 310.595 146.088C310.755 145.912 310.915 145.824 311.075 145.824C311.395 145.824 311.667 145.928 311.891 146.136C312.131 146.328 312.307 146.568 312.419 146.856C312.611 147.48 312.779 148.048 312.923 148.56C312.987 148.768 313.131 149.272 313.355 150.072C313.595 150.856 313.811 151.52 314.003 152.064C314.195 152.608 314.355 152.992 314.483 153.216L315.395 150.288ZM321.867 140.592C322.427 140.64 322.915 140.792 323.331 141.048C323.747 141.288 323.955 141.656 323.955 142.152C323.955 142.52 323.779 142.816 323.427 143.04C323.091 143.248 322.683 143.352 322.203 143.352C321.739 143.352 321.419 143.232 321.243 142.992C321.067 142.752 320.979 142.504 320.979 142.248C320.979 141.768 321.027 141.368 321.123 141.048C321.235 140.728 321.483 140.576 321.867 140.592ZM323.787 151.224V151.92C323.787 152.544 323.803 153.136 323.835 153.696C323.883 154.24 323.939 154.792 324.003 155.352C323.987 155.512 323.867 155.68 323.643 155.856C323.419 156.016 323.219 156.096 323.043 156.096C322.739 156.096 322.427 156.04 322.107 155.928C321.803 155.8 321.619 155.648 321.555 155.472C321.459 154.96 321.411 154.504 321.411 154.104C321.411 152.792 321.371 151.32 321.291 149.688C321.227 148.248 321.195 147.24 321.195 146.664C321.195 146.376 321.339 146.128 321.627 145.92C321.915 145.712 322.219 145.608 322.539 145.608C323.003 145.608 323.323 145.712 323.499 145.92C323.691 146.128 323.787 146.456 323.787 146.904V151.224ZM326.784 147.648C326.56 147.616 326.376 147.528 326.232 147.384C326.104 147.224 326.04 147.032 326.04 146.808C326.04 146.52 326.152 146.28 326.376 146.088C326.424 146.04 326.504 146 326.616 145.968C326.728 145.92 326.816 145.88 326.88 145.848C327.232 145.736 327.456 145.648 327.552 145.584C327.92 145.36 328.168 144.992 328.296 144.48C328.424 143.872 328.504 143.456 328.536 143.232C328.568 142.88 328.68 142.616 328.872 142.44C329.08 142.248 329.336 142.152 329.64 142.152C330.04 142.152 330.32 142.256 330.48 142.464C330.64 142.672 330.72 143.056 330.72 143.616C330.72 144.352 330.544 145.048 330.192 145.704C330.416 145.704 330.784 145.688 331.296 145.656C332.064 145.624 332.6 145.608 332.904 145.608C333.176 145.608 333.408 145.68 333.6 145.824C333.808 145.952 333.912 146.144 333.912 146.4C333.912 147.008 333.632 147.368 333.072 147.48C332.56 147.624 331.632 147.712 330.288 147.744C330.176 149.312 330.12 150.552 330.12 151.464C330.12 152.024 330.144 152.424 330.192 152.664C330.288 153.16 330.448 153.528 330.672 153.768C330.912 153.992 331.264 154.104 331.728 154.104C331.952 154.104 332.288 154.048 332.736 153.936C333.008 153.856 333.224 153.816 333.384 153.816C333.592 153.816 333.752 153.888 333.864 154.032C333.976 154.176 334.032 154.368 334.032 154.608C334.032 155.04 333.752 155.4 333.192 155.688C332.632 155.96 331.968 156.096 331.2 156.096C330.72 156.096 330.248 155.984 329.784 155.76C329.32 155.52 328.928 155.232 328.608 154.896C328.544 154.864 328.448 154.688 328.32 154.368C328.208 154.048 328.096 153.696 327.984 153.312C327.936 153.12 327.912 152.656 327.912 151.92C327.912 151.216 327.96 150 328.056 148.272L328.08 147.744C327.968 147.744 327.76 147.736 327.456 147.72C327.152 147.688 326.928 147.664 326.784 147.648ZM338.664 140.784C338.664 141.2 338.656 141.688 338.64 142.248C338.624 142.792 338.608 143.208 338.592 143.496C338.544 144.312 338.52 145.128 338.52 145.944C338.52 147.016 338.544 147.88 338.592 148.536C338.96 147.624 339.48 146.936 340.152 146.472C340.824 145.992 341.592 145.752 342.456 145.752C343.048 145.752 343.6 146.016 344.112 146.544C344.624 147.072 344.952 147.688 345.096 148.392C345.112 148.472 345.12 148.592 345.12 148.752C345.12 148.944 345.104 149.248 345.072 149.664C345.024 150 345 150.336 345 150.672C345 151.536 345.032 152.208 345.096 152.688C345.16 153.152 345.296 153.536 345.504 153.84C345.712 154.128 346.04 154.36 346.488 154.536C346.664 154.6 346.784 154.688 346.848 154.8C346.928 154.896 346.968 155.048 346.968 155.256C346.968 155.544 346.816 155.76 346.512 155.904C346.224 156.048 345.944 156.12 345.672 156.12C345.112 156.12 344.608 155.968 344.16 155.664C343.712 155.36 343.376 154.96 343.152 154.464C342.992 154.128 342.888 153.728 342.84 153.264C342.792 152.8 342.768 152.256 342.768 151.632L342.792 149.544C342.792 148.408 342.424 147.84 341.688 147.84C341.16 147.84 340.648 148.272 340.152 149.136C339.656 150 339.256 151.016 338.952 152.184C338.648 153.352 338.496 154.312 338.496 155.064C338.496 155.416 338.384 155.68 338.16 155.856C337.952 156.016 337.736 156.096 337.512 156.096C337.16 156.096 336.84 155.992 336.552 155.784C336.264 155.56 336.12 155.312 336.12 155.04C336.232 153.84 336.288 151.832 336.288 149.016C336.288 148.504 336.248 146.608 336.168 143.328L336.096 141.12C336.096 140.768 336.256 140.464 336.576 140.208C336.896 139.936 337.256 139.8 337.656 139.8C338.008 139.8 338.264 139.88 338.424 140.04C338.584 140.2 338.664 140.448 338.664 140.784ZM356.612 152.28C356.612 152.888 356.7 153.36 356.876 153.696C357.068 154.016 357.308 154.176 357.596 154.176C357.756 154.176 357.908 154.168 358.052 154.152C358.196 154.12 358.34 154.104 358.484 154.104C358.644 154.104 358.78 154.184 358.892 154.344C359.02 154.504 359.084 154.68 359.084 154.872C359.084 155.256 358.9 155.56 358.532 155.784C358.18 155.992 357.7 156.096 357.092 156.096C356.66 156.096 356.22 155.968 355.772 155.712C355.34 155.44 354.98 155.024 354.692 154.464C354.404 153.888 354.26 153.176 354.26 152.328C354.26 150.504 354.292 148.96 354.356 147.696C354.436 146.192 354.476 144.296 354.476 142.008C354.476 141.288 354.516 140.784 354.596 140.496C354.692 140.272 354.844 140.104 355.052 139.992C355.276 139.864 355.508 139.8 355.748 139.8C355.988 139.8 356.196 139.84 356.372 139.92C356.564 140 356.692 140.128 356.756 140.304C356.82 140.496 356.86 140.688 356.876 140.88C356.908 141.056 356.924 141.312 356.924 141.648C356.924 142.304 356.9 142.936 356.852 143.544C356.82 144.28 356.804 144.816 356.804 145.152C356.676 147.968 356.612 150.344 356.612 152.28ZM370.177 148.296C370.305 148.52 370.409 148.848 370.489 149.28C370.569 149.696 370.609 150.072 370.609 150.408C370.609 150.84 370.561 151.32 370.465 151.848C370.369 152.376 370.281 152.784 370.201 153.072C369.097 155.088 367.465 156.096 365.305 156.096C364.505 156.096 363.689 155.832 362.857 155.304C362.025 154.776 361.449 154.168 361.129 153.48C360.697 152.12 360.481 151.248 360.481 150.864C360.481 150.224 360.617 149.544 360.889 148.824C361.177 148.104 361.537 147.48 361.969 146.952C362.257 146.584 362.753 146.272 363.457 146.016C364.161 145.744 364.801 145.608 365.377 145.608C366.497 145.608 367.441 145.824 368.209 146.256C368.993 146.672 369.649 147.352 370.177 148.296ZM368.089 152.16C368.169 152 368.209 151.464 368.209 150.552C368.209 150.088 368.121 149.632 367.945 149.184C367.785 148.736 367.545 148.352 367.225 148.032C367.193 148 367.105 147.952 366.961 147.888C366.817 147.808 366.617 147.736 366.361 147.672C366.121 147.592 365.841 147.552 365.521 147.552C364.625 147.552 363.969 147.912 363.553 148.632C363.137 149.352 362.929 150.168 362.929 151.08C362.929 151.224 362.977 151.52 363.073 151.968C363.169 152.416 363.241 152.704 363.289 152.832C363.417 153.056 363.673 153.32 364.057 153.624C364.457 153.912 364.889 154.056 365.353 154.056C366.073 154.056 366.641 153.888 367.057 153.552C367.489 153.2 367.833 152.736 368.089 152.16ZM378.477 149.832C378.525 149.704 378.693 149.24 378.981 148.44C379.285 147.64 379.565 147.032 379.821 146.616C380.237 145.96 380.605 145.632 380.925 145.632C381.373 145.632 381.717 145.72 381.957 145.896C382.197 146.056 382.317 146.288 382.317 146.592C382.317 146.736 382.253 146.936 382.125 147.192C382.013 147.448 381.949 147.6 381.933 147.648C381.293 149.056 380.717 150.568 380.205 152.184L379.701 154.056C379.509 154.664 379.181 155.16 378.717 155.544C378.253 155.912 377.709 156.096 377.085 156.096C376.525 156.096 376.005 155.84 375.525 155.328C375.237 154.88 374.933 154.312 374.613 153.624C374.309 152.936 374.045 152.264 373.821 151.608L372.981 149.088C372.805 148.592 372.661 148.168 372.549 147.816C372.453 147.464 372.405 147.144 372.405 146.856C372.389 146.52 372.485 146.248 372.693 146.04C372.901 145.832 373.189 145.728 373.557 145.728C373.973 145.728 374.269 145.816 374.445 145.992C374.621 146.152 374.781 146.408 374.925 146.76C374.989 147.128 375.165 147.88 375.453 149.016L375.621 149.688C375.765 150.232 375.949 150.784 376.173 151.344C376.397 151.904 376.621 152.44 376.845 152.952C376.813 152.872 376.925 153.136 377.181 153.744C377.341 153.28 377.525 152.712 377.733 152.04L378.477 149.832ZM383.826 150.576C383.826 150 383.93 149.464 384.138 148.968C384.346 148.456 384.65 147.928 385.05 147.384C385.45 146.84 386.002 146.416 386.706 146.112C387.41 145.792 388.178 145.632 389.01 145.632C389.65 145.632 390.266 145.768 390.858 146.04C391.466 146.296 392.01 146.616 392.49 147C392.554 147.112 392.666 147.32 392.826 147.624C392.986 147.912 393.098 148.176 393.162 148.416C393.242 148.656 393.282 148.904 393.282 149.16C393.282 150.232 392.89 150.952 392.106 151.32C391.322 151.672 390.33 151.848 389.13 151.848C387.93 151.848 386.954 151.768 386.202 151.608C386.234 151.912 386.314 152.216 386.442 152.52C386.57 152.824 386.722 153.056 386.898 153.216C387.218 153.52 387.53 153.72 387.834 153.816C388.154 153.896 388.578 153.936 389.106 153.936C389.906 153.936 390.53 153.784 390.978 153.48C391.394 153.208 391.714 153.072 391.938 153.072C392.242 153.072 392.474 153.168 392.634 153.36C392.794 153.536 392.874 153.768 392.874 154.056C392.874 154.664 392.482 155.16 391.698 155.544C390.93 155.928 390.058 156.12 389.082 156.12C388.314 156.12 387.554 155.984 386.802 155.712C386.05 155.44 385.45 155.056 385.002 154.56C384.698 154.048 384.426 153.424 384.186 152.688C383.946 151.952 383.826 151.248 383.826 150.576ZM389.106 147.6C388.754 147.6 388.386 147.664 388.002 147.792C387.634 147.904 387.346 148.08 387.138 148.32C386.882 148.592 386.69 148.84 386.562 149.064C386.45 149.288 386.378 149.568 386.346 149.904C386.522 149.904 386.69 149.912 386.85 149.928C387.01 149.944 387.162 149.96 387.306 149.976C388.01 150.04 388.538 150.072 388.89 150.072C389.594 150.072 390.13 149.968 390.498 149.76C390.882 149.552 391.074 149.272 391.074 148.92C391.074 148.584 390.858 148.28 390.426 148.008C390.01 147.736 389.57 147.6 389.106 147.6ZM407.587 142.68C407.427 142.68 407.291 142.648 407.179 142.584C407.083 142.504 406.963 142.384 406.819 142.224C406.675 142.064 406.531 141.944 406.387 141.864C406.259 141.768 406.091 141.72 405.883 141.72C405.723 141.72 405.555 141.84 405.379 142.08C405.203 142.304 405.083 142.664 405.019 143.16C404.907 144.2 404.851 145.04 404.851 145.68C405.219 145.728 405.779 145.752 406.531 145.752H407.371C407.659 145.752 407.883 145.808 408.043 145.92C408.203 146.032 408.283 146.216 408.283 146.472C408.283 146.84 408.171 147.144 407.947 147.384C407.723 147.624 407.459 147.744 407.155 147.744C406.147 147.744 405.371 147.72 404.827 147.672C404.779 148.552 404.755 149.504 404.755 150.528C404.755 151.968 404.803 153.408 404.899 154.848C404.915 155.28 404.827 155.6 404.635 155.808C404.443 156 404.131 156.096 403.699 156.096C403.443 156.096 403.251 156.04 403.123 155.928C402.995 155.816 402.899 155.696 402.835 155.568C402.787 155.424 402.723 155.176 402.643 154.824C402.515 154.168 402.451 152.936 402.451 151.128V149.136C402.451 148.688 402.475 148.168 402.523 147.576C402.395 147.576 402.155 147.576 401.803 147.576C401.467 147.56 401.163 147.52 400.891 147.456C400.747 147.408 400.603 147.288 400.459 147.096C400.315 146.904 400.243 146.672 400.243 146.4C400.243 146.24 400.299 146.088 400.411 145.944C400.523 145.8 400.659 145.696 400.819 145.632C400.915 145.584 401.027 145.56 401.155 145.56C401.267 145.56 401.379 145.576 401.491 145.608C401.619 145.624 401.739 145.632 401.851 145.632L402.571 145.656C402.571 143.48 402.819 141.952 403.315 141.072C403.795 140.24 404.587 139.824 405.691 139.824C406.043 139.824 406.459 139.896 406.939 140.04C407.435 140.168 407.859 140.368 408.211 140.64C408.579 140.896 408.763 141.208 408.763 141.576C408.763 141.848 408.643 142.104 408.403 142.344C408.179 142.568 407.907 142.68 407.587 142.68ZM419.585 148.296C419.713 148.52 419.817 148.848 419.897 149.28C419.977 149.696 420.017 150.072 420.017 150.408C420.017 151.032 419.881 151.92 419.609 153.072C418.505 155.088 416.873 156.096 414.713 156.096C413.913 156.096 413.097 155.832 412.265 155.304C411.433 154.776 410.857 154.168 410.537 153.48C410.105 152.104 409.889 151.232 409.889 150.864C409.889 150.224 410.025 149.544 410.297 148.824C410.585 148.104 410.945 147.48 411.377 146.952C411.649 146.584 412.137 146.272 412.841 146.016C413.545 145.744 414.185 145.608 414.761 145.608C415.881 145.608 416.833 145.824 417.617 146.256C418.401 146.672 419.057 147.352 419.585 148.296ZM417.497 152.16C417.577 151.952 417.617 151.416 417.617 150.552C417.617 150.088 417.529 149.632 417.353 149.184C417.193 148.736 416.953 148.352 416.633 148.032C416.601 148 416.513 147.952 416.369 147.888C416.225 147.808 416.025 147.736 415.769 147.672C415.529 147.592 415.249 147.552 414.929 147.552C414.033 147.552 413.377 147.912 412.961 148.632C412.545 149.352 412.337 150.168 412.337 151.08C412.337 151.24 412.377 151.544 412.457 151.992C412.553 152.44 412.633 152.72 412.697 152.832C412.745 152.944 412.865 153.104 413.057 153.312C413.265 153.504 413.513 153.68 413.801 153.84C414.105 153.984 414.417 154.056 414.737 154.056C415.457 154.056 416.033 153.888 416.465 153.552C416.897 153.2 417.241 152.736 417.497 152.16ZM425.914 155.04C425.914 155.312 425.81 155.552 425.602 155.76C425.394 155.968 425.138 156.072 424.834 156.072C424.354 156.072 424.002 155.984 423.778 155.808C423.554 155.616 423.442 155.272 423.442 154.776C423.442 154.184 423.426 153.408 423.394 152.448C423.362 151.648 423.346 150.976 423.346 150.432C423.346 150.176 423.362 149.84 423.394 149.424C423.426 149.04 423.442 148.752 423.442 148.56C423.394 148.256 423.274 148.008 423.082 147.816C422.89 147.608 422.642 147.504 422.338 147.504C422.194 147.504 422.074 147.44 421.978 147.312C421.882 147.168 421.834 147.024 421.834 146.88C421.834 146.512 421.978 146.232 422.266 146.04C422.57 145.848 422.93 145.752 423.346 145.752C424.21 145.752 424.81 146.264 425.146 147.288C425.562 146.808 426.034 146.424 426.562 146.136C427.106 145.832 427.626 145.68 428.122 145.68C428.714 145.68 429.25 145.84 429.73 146.16C430.226 146.48 430.474 146.912 430.474 147.456C430.474 147.76 430.338 148.072 430.066 148.392C429.81 148.712 429.546 148.872 429.274 148.872C429.13 148.872 429.002 148.84 428.89 148.776C428.794 148.696 428.674 148.584 428.53 148.44C428.37 148.28 428.234 148.168 428.122 148.104C428.01 148.024 427.882 147.984 427.738 147.984C427.482 147.984 427.242 148.024 427.018 148.104C426.794 148.184 426.642 148.28 426.562 148.392C426.306 148.792 426.114 149.152 425.986 149.472C425.874 149.792 425.818 150.136 425.818 150.504C425.818 150.776 425.81 150.992 425.794 151.152L425.77 152.52C425.77 152.728 425.778 152.96 425.794 153.216C425.81 153.472 425.826 153.664 425.842 153.792C425.89 154.224 425.914 154.64 425.914 155.04ZM437.1 147.552C436.972 147.456 436.868 147.36 436.788 147.264C436.708 147.152 436.668 146.96 436.668 146.688C436.668 146.384 436.772 146.152 436.98 145.992C437.204 145.816 437.46 145.728 437.748 145.728C438.308 145.728 438.788 145.872 439.188 146.16C439.604 146.448 439.908 146.848 440.1 147.36C440.452 146.704 440.9 146.256 441.444 146.016C441.988 145.76 442.74 145.632 443.7 145.632C444.084 145.632 444.476 145.752 444.876 145.992C445.292 146.216 445.668 146.496 446.004 146.832C446.276 147.184 446.508 147.624 446.7 148.152C446.892 148.664 446.988 149.128 446.988 149.544C446.988 149.784 446.972 150.176 446.94 150.72C446.908 151.296 446.892 151.752 446.892 152.088C446.892 153.208 447.108 153.896 447.54 154.152C447.604 154.184 447.724 154.224 447.9 154.272C448.076 154.32 448.204 154.368 448.284 154.416C448.38 154.464 448.428 154.536 448.428 154.632C448.444 155.016 448.3 155.336 447.996 155.592C447.708 155.832 447.356 155.952 446.94 155.952C446.316 155.952 445.828 155.784 445.476 155.448C445.124 155.112 444.876 154.6 444.732 153.912C444.652 153.656 444.612 153.28 444.612 152.784C444.612 152.512 444.628 152.072 444.66 151.464C444.708 150.984 444.732 150.472 444.732 149.928C444.732 149.368 444.572 148.88 444.252 148.464C443.932 148.032 443.492 147.816 442.932 147.816C442.596 147.816 442.244 147.92 441.876 148.128C441.508 148.32 441.252 148.56 441.108 148.848C440.868 149.344 440.708 149.848 440.628 150.36C440.436 151.352 440.34 152.304 440.34 153.216C440.34 153.44 440.356 153.872 440.388 154.512C440.388 154.56 440.388 154.68 440.388 154.872C440.388 155.048 440.364 155.216 440.316 155.376C440.284 155.536 440.22 155.68 440.124 155.808C440.06 155.872 439.94 155.936 439.764 156C439.588 156.064 439.436 156.096 439.308 156.096C439.084 156.096 438.804 156 438.468 155.808C438.132 155.616 437.932 155.4 437.868 155.16L437.844 154.824C437.844 154.696 437.86 154.504 437.892 154.248C438.084 153.128 438.18 152.152 438.18 151.32C438.18 150.952 438.172 150.672 438.156 150.48L438.132 149.376C438.132 149.04 438.036 148.72 437.844 148.416C437.652 148.096 437.404 147.808 437.1 147.552ZM459.208 156.096C458.664 156.096 458.248 156.016 457.96 155.856C457.672 155.68 457.36 155.36 457.024 154.896C456.608 155.264 455.984 155.56 455.152 155.784C454.336 156.008 453.632 156.12 453.04 156.12C452.064 156.12 451.272 155.856 450.664 155.328C450.072 154.784 449.776 153.992 449.776 152.952C449.776 152.504 449.896 152.096 450.136 151.728C450.392 151.344 450.72 151.008 451.12 150.72C451.568 150.416 452.096 150.176 452.704 150C453.328 149.824 453.896 149.736 454.408 149.736C455.272 149.736 456.04 149.816 456.712 149.976V149.952C456.712 149.088 456.496 148.496 456.064 148.176C455.648 147.84 454.976 147.672 454.048 147.672C453.456 147.672 452.944 147.936 452.512 148.464C452.352 148.672 452.016 148.776 451.504 148.776C451.248 148.776 451.056 148.672 450.928 148.464C450.816 148.24 450.76 148.016 450.76 147.792C450.76 147.328 450.952 146.928 451.336 146.592C451.736 146.256 452.216 146.008 452.776 145.848C453.336 145.672 453.856 145.584 454.336 145.584C454.8 145.584 455.352 145.68 455.992 145.872C456.632 146.064 457.152 146.32 457.552 146.64C458.032 147.056 458.4 147.544 458.656 148.104C458.928 148.648 459.064 149.248 459.064 149.904C459.064 150.112 459.048 150.424 459.016 150.84C458.984 151.32 458.968 151.712 458.968 152.016C458.968 152.16 458.952 152.344 458.92 152.568C458.888 152.856 458.872 153.096 458.872 153.288C458.872 153.496 458.936 153.696 459.064 153.888C459.192 154.08 459.368 154.24 459.592 154.368C459.8 154.48 459.936 154.6 460 154.728C460.064 154.856 460.096 155 460.096 155.16C460.096 155.32 459.992 155.52 459.784 155.76C459.592 155.984 459.4 156.096 459.208 156.096ZM454.408 151.512C453.784 151.512 453.232 151.632 452.752 151.872C452.272 152.112 452.032 152.536 452.032 153.144C452.032 153.448 452.136 153.704 452.344 153.912C452.568 154.12 452.808 154.224 453.064 154.224C453.752 154.224 454.328 154.152 454.792 154.008C455.256 153.864 455.816 153.6 456.472 153.216C456.552 152.96 456.6 152.6 456.616 152.136C456.616 151.96 456.624 151.824 456.64 151.728C455.776 151.584 455.032 151.512 454.408 151.512ZM461.949 147.696C461.725 147.664 461.541 147.568 461.397 147.408C461.269 147.248 461.205 147.056 461.205 146.832C461.205 146.72 461.229 146.6 461.277 146.472C461.341 146.344 461.429 146.232 461.541 146.136C461.749 145.96 462.029 145.792 462.381 145.632C462.749 145.488 463.013 145.312 463.173 145.104C463.333 144.896 463.413 144.504 463.413 143.928C463.413 143.688 463.397 143.48 463.365 143.304C463.349 143.128 463.341 142.992 463.341 142.896C463.341 142.544 463.469 142.28 463.725 142.104C463.981 141.928 464.277 141.84 464.613 141.84C465.029 141.84 465.309 141.944 465.453 142.152C465.613 142.36 465.693 142.744 465.693 143.304C465.693 143.848 465.669 144.32 465.621 144.72C465.573 145.104 465.469 145.448 465.309 145.752C465.533 145.752 465.901 145.736 466.413 145.704C467.117 145.672 467.605 145.656 467.877 145.656C468.149 145.656 468.389 145.728 468.597 145.872C468.805 146 468.909 146.184 468.909 146.424C468.909 146.76 468.837 147.008 468.693 147.168C468.549 147.328 468.341 147.432 468.069 147.48C467.413 147.656 466.485 147.76 465.285 147.792C465.253 148.416 465.237 149.096 465.237 149.832C465.237 151.064 465.309 152.008 465.453 152.664C465.549 153.176 465.709 153.552 465.933 153.792C466.173 154.016 466.525 154.128 466.989 154.128C467.229 154.128 467.421 154.096 467.565 154.032C467.725 153.968 467.813 153.928 467.829 153.912C468.021 153.8 468.197 153.744 468.357 153.744C468.581 153.744 468.741 153.816 468.837 153.96C468.949 154.104 469.005 154.296 469.005 154.536C469.005 154.984 468.765 155.36 468.285 155.664C467.805 155.952 467.189 156.096 466.437 156.096C465.589 156.096 464.869 155.848 464.277 155.352C463.701 154.84 463.357 154.168 463.245 153.336C463.085 152.584 463.005 151.528 463.005 150.168C463.005 149.576 463.037 148.784 463.101 147.792L461.949 147.696ZM470.66 147.912C470.532 147.912 470.42 147.864 470.324 147.768C470.228 147.656 470.18 147.528 470.18 147.384C470.18 146.92 470.332 146.568 470.636 146.328C470.94 146.072 471.316 145.944 471.764 145.944C472.388 145.944 472.924 146.112 473.372 146.448C473.836 146.768 474.068 147.232 474.068 147.84C474.068 148 474.036 148.608 473.972 149.664C473.908 150.88 473.876 151.688 473.876 152.088C473.876 152.648 473.98 153.104 474.188 153.456C474.412 153.792 474.756 153.96 475.22 153.96C476.116 153.96 476.804 153.464 477.284 152.472C477.78 151.464 478.108 150.232 478.268 148.776C478.332 148.136 478.428 147.464 478.556 146.76C478.62 146.376 478.708 146.096 478.82 145.92C478.932 145.744 479.148 145.656 479.468 145.656C479.676 145.656 479.916 145.704 480.188 145.8C480.476 145.896 480.66 146.024 480.74 146.184C480.836 146.424 480.884 146.688 480.884 146.976C480.884 147.376 480.828 147.896 480.716 148.536C480.588 149.176 480.5 149.872 480.452 150.624C480.42 151.296 480.524 152 480.764 152.736C481.004 153.472 481.348 153.952 481.796 154.176C482.308 154.432 482.564 154.664 482.564 154.872C482.564 155.208 482.444 155.472 482.204 155.664C481.964 155.856 481.732 155.952 481.508 155.952C480.916 155.952 480.38 155.736 479.9 155.304C479.436 154.872 479.1 154.336 478.892 153.696C478.556 154.208 478.228 154.632 477.908 154.968C477.604 155.288 477.212 155.56 476.732 155.784C476.252 155.992 475.66 156.096 474.956 156.096C474.124 156.096 473.364 155.8 472.676 155.208C472.004 154.616 471.668 153.6 471.668 152.16C471.668 151.76 471.676 151.336 471.692 150.888C471.724 150.44 471.74 150.12 471.74 149.928C471.788 149.352 471.812 148.824 471.812 148.344C471.812 148.2 471.756 148.08 471.644 147.984C471.548 147.888 471.436 147.84 471.308 147.84C471.212 147.84 471.1 147.856 470.972 147.888C470.86 147.904 470.756 147.912 470.66 147.912ZM487.812 155.04C487.812 155.312 487.708 155.552 487.5 155.76C487.292 155.968 487.036 156.072 486.732 156.072C486.252 156.072 485.9 155.984 485.676 155.808C485.452 155.616 485.34 155.272 485.34 154.776C485.34 154.184 485.324 153.408 485.292 152.448C485.26 151.648 485.244 150.976 485.244 150.432C485.244 150.176 485.26 149.84 485.292 149.424C485.324 149.04 485.34 148.752 485.34 148.56C485.292 148.256 485.172 148.008 484.98 147.816C484.788 147.608 484.54 147.504 484.236 147.504C484.092 147.504 483.972 147.44 483.876 147.312C483.78 147.168 483.732 147.024 483.732 146.88C483.732 146.512 483.876 146.232 484.164 146.04C484.468 145.848 484.828 145.752 485.244 145.752C486.108 145.752 486.708 146.264 487.044 147.288C487.46 146.808 487.932 146.424 488.46 146.136C489.004 145.832 489.524 145.68 490.02 145.68C490.612 145.68 491.148 145.84 491.628 146.16C492.124 146.48 492.372 146.912 492.372 147.456C492.372 147.76 492.236 148.072 491.964 148.392C491.708 148.712 491.444 148.872 491.172 148.872C491.028 148.872 490.9 148.84 490.788 148.776C490.692 148.696 490.572 148.584 490.428 148.44C490.268 148.28 490.132 148.168 490.02 148.104C489.908 148.024 489.78 147.984 489.636 147.984C489.38 147.984 489.14 148.024 488.916 148.104C488.692 148.184 488.54 148.28 488.46 148.392C488.204 148.792 488.012 149.152 487.884 149.472C487.772 149.792 487.716 150.136 487.716 150.504C487.716 150.776 487.708 150.992 487.692 151.152L487.668 152.52C487.668 152.728 487.676 152.96 487.692 153.216C487.708 153.472 487.724 153.664 487.74 153.792C487.788 154.224 487.812 154.64 487.812 155.04ZM493.607 150.912C493.607 150.304 493.719 149.696 493.943 149.088C494.167 148.464 494.463 147.896 494.831 147.384C495.199 146.872 495.783 146.456 496.583 146.136C497.383 145.8 498.095 145.632 498.719 145.632C499.359 145.632 500.007 145.72 500.663 145.896C501.335 146.072 501.799 146.344 502.055 146.712C502.647 147.544 502.943 148.36 502.943 149.16C502.943 149.592 502.847 149.96 502.655 150.264C502.479 150.568 502.223 150.896 501.887 151.248C501.615 151.536 501.183 151.728 500.591 151.824C500.015 151.92 499.439 151.968 498.863 151.968C498.495 151.968 498.047 151.936 497.519 151.872C496.991 151.792 496.479 151.696 495.983 151.584C496.015 151.904 496.095 152.216 496.223 152.52C496.351 152.824 496.503 153.056 496.679 153.216C496.999 153.52 497.327 153.712 497.663 153.792C498.015 153.872 498.463 153.912 499.007 153.912C499.583 153.912 500.119 153.816 500.615 153.624C501.015 153.48 501.343 153.408 501.599 153.408C501.903 153.408 502.135 153.504 502.295 153.696C502.455 153.872 502.535 154.104 502.535 154.392C502.535 154.792 502.303 155.12 501.839 155.376C501.375 155.632 500.839 155.824 500.231 155.952C499.639 156.064 499.159 156.12 498.791 156.12C498.039 156.12 497.311 155.984 496.607 155.712C495.903 155.44 495.319 155.056 494.855 154.56C494.471 154.112 494.167 153.576 493.943 152.952C493.719 152.312 493.607 151.632 493.607 150.912ZM498.839 147.672C498.487 147.672 498.135 147.744 497.783 147.888C497.431 148.016 497.143 148.2 496.919 148.44C496.631 148.744 496.431 148.992 496.319 149.184C496.223 149.36 496.159 149.608 496.127 149.928C496.527 150.056 497.359 150.12 498.623 150.12C499.311 150.12 499.839 150.016 500.207 149.808C500.591 149.6 500.783 149.328 500.783 148.992C500.783 148.656 500.575 148.352 500.159 148.08C499.743 147.808 499.303 147.672 498.839 147.672Z" fill="black"/>
</svg>
